<svg width="15" height="15" viewBox="0 0 15 15" fill="none" xmlns="http://www.w3.org/2000/svg">
<path d="M14.1949 0.412508C13.8404 0.0486222 13.3157 -0.0869432 12.8264 0.0557572L1.41717 3.37354C0.900958 3.51695 0.535069 3.92865 0.436506 4.45164C0.335815 4.98391 0.687523 5.6596 1.14701 5.94215L4.71443 8.13474C5.08032 8.35949 5.55258 8.30313 5.85536 7.99775L9.94042 3.88726C10.1461 3.67321 10.4864 3.67321 10.692 3.88726C10.8977 4.09418 10.8977 4.42952 10.692 4.64357L6.5999 8.75477C6.29641 9.05944 6.23968 9.53392 6.46305 9.90208L8.64278 13.5053C8.89806 13.9334 9.33769 14.176 9.81987 14.176C9.8766 14.176 9.94041 14.176 9.99714 14.1688C10.5502 14.0975 10.9899 13.7193 11.153 13.1842L14.5353 1.78957C14.6842 1.30439 14.5495 0.776394 14.1949 0.412508Z" fill="#00A2F4"/>
</svg>
