<svg width="11" height="11" viewBox="0 0 11 11" fill="none" xmlns="http://www.w3.org/2000/svg">
<path d="M8.063 0C9.933 0 11 1.056 11 2.9315V8.0685C11 9.933 9.9385 11 8.0685 11H2.9315C1.056 11 0 9.933 0 8.0685V2.9315C0 1.056 1.056 0 2.9315 0H8.063ZM5.4945 3.0305C5.2415 3.0305 5.038 3.234 5.038 3.487V5.038H3.4815C3.3605 5.038 3.245 5.0875 3.157 5.17C3.0745 5.258 3.025 5.37295 3.025 5.4945C3.025 5.7475 3.2285 5.951 3.4815 5.9565H5.038V7.513C5.038 7.766 5.2415 7.9695 5.4945 7.9695C5.7475 7.9695 5.951 7.766 5.951 7.513V5.9565H7.513C7.766 5.951 7.9695 5.7475 7.9695 5.4945C7.9695 5.2415 7.766 5.038 7.513 5.038H5.951V3.487C5.951 3.234 5.7475 3.0305 5.4945 3.0305Z" fill="#00A2F4"/>
</svg>
